<svg xmlns="http://www.w3.org/2000/svg" width="25.306" height="25.306" viewBox="0 0 25.306 25.306">
  <path id="Icon_awesome-info-circle" data-name="Icon awesome-info-circle" d="M13.216.563A12.653,12.653,0,1,0,25.869,13.216,12.655,12.655,0,0,0,13.216.563Zm0,5.612a2.143,2.143,0,1,1-2.143,2.143A2.143,2.143,0,0,1,13.216,6.175Zm2.857,12.959a.612.612,0,0,1-.612.612h-4.49a.612.612,0,0,1-.612-.612V17.909a.612.612,0,0,1,.612-.612h.612V14.032h-.612a.612.612,0,0,1-.612-.612V12.2a.612.612,0,0,1,.612-.612h3.265a.612.612,0,0,1,.612.612v5.1h.612a.612.612,0,0,1,.612.612Z" transform="translate(-0.563 -0.563)" fill="#0ebcb5"/>
</svg>
